<?xml version="1.0" encoding="UTF-8" standalone="no"?>
<svg width="42px" height="42px" viewBox="0 0 42 42" version="1.1" xmlns="http://www.w3.org/2000/svg" xmlns:xlink="http://www.w3.org/1999/xlink" xmlns:sketch="http://www.bohemiancoding.com/sketch/ns">
    <!-- Generator: Sketch 3.0.4 (8053) - http://www.bohemiancoding.com/sketch -->
    <title>fb</title>
    <desc>Created with Sketch.</desc>
    <defs></defs>
    <g id="Page-1" stroke="none" stroke-width="1" fill="none" fill-rule="evenodd" sketch:type="MSPage">
        <g id="Facebook-+-Path" sketch:type="MSLayerGroup" transform="translate(1.000000, 1.000000)">
            <path d="M0.0761078998,20 C0.0761078998,8.95430446 9.0433521,0 20.1050096,0 C31.1666672,0 40.1339114,8.95430446 40.1339114,20 C40.1339114,31.0456955 31.1666672,40 20.1050096,40 C9.0433521,40 0.0761078998,31.0456955 0.0761078998,20 Z" id="Facebook" fill="#AAAAAA" sketch:type="MSShapeGroup"></path>
            <path d="M21.7798099,30.879782 L21.7798099,19.998726 L24.7834572,19.998726 L25.1815053,16.2490539 L21.7798099,16.2490539 L21.784913,14.3723069 C21.784913,13.3943347 21.8778335,12.8703148 23.2824841,12.8703148 L25.1602421,12.8703148 L25.1602421,9.12021803 L22.1561695,9.12021803 C18.5477952,9.12021803 17.277741,10.9392124 17.277741,13.998189 L17.277741,16.2494786 L15.028514,16.2494786 L15.028514,19.9991507 L17.277741,19.9991507 L17.277741,30.879782 L21.7798099,30.879782 Z" id="Path" fill="#FFFFFF" sketch:type="MSShapeGroup"></path>
        </g>
    </g>
</svg>