<?xml version="1.0" encoding="UTF-8" standalone="no"?>
<svg width="42px" height="42px" viewBox="0 0 42 42" version="1.1" xmlns="http://www.w3.org/2000/svg" xmlns:xlink="http://www.w3.org/1999/xlink" xmlns:sketch="http://www.bohemiancoding.com/sketch/ns">
    <!-- Generator: Sketch 3.0.4 (8053) - http://www.bohemiancoding.com/sketch -->
    <title>inst</title>
    <desc>Created with Sketch.</desc>
    <defs></defs>
    <g id="Page-1" stroke="none" stroke-width="1" fill="none" fill-rule="evenodd" sketch:type="MSPage">
        <g id="Instagram-+-Path" sketch:type="MSLayerGroup" transform="translate(1.000000, 1.000000)">
            <path d="M-0.133911368,20 C-0.133911368,8.95430446 8.83333284,0 19.8949904,0 C30.9566479,0 39.9238921,8.95430446 39.9238921,20 C39.9238921,31.0456955 30.9566479,40 19.8949904,40 C8.83333284,40 -0.133911368,31.0456955 -0.133911368,20 Z" id="Instagram" fill="#AAAAAA" sketch:type="MSShapeGroup"></path>
            <path d="M28.3604701,30.1145278 C29.1922296,29.9382518 29.8718877,29.2453446 30.0344588,28.4098484 C30.0519083,28.3195324 30.0647046,28.2277643 30.0795367,28.1371578 L30.0795367,11.8628422 C30.0652863,11.7736877 30.0530716,11.6842429 30.0356221,11.5953789 C29.8573464,10.6837965 29.1044005,9.97636905 28.1798678,9.85004273 C28.1414789,9.84510584 28.1039624,9.83668408 28.0661552,9.83000476 L11.7238255,9.83000476 C11.6252359,9.84771949 11.5260645,9.86107813 11.428929,9.88314894 C10.526499,10.0884655 9.85876477,10.8141885 9.73022011,11.7272229 C9.72498526,11.765266 9.71713299,11.8030187 9.71044401,11.8410618 L9.71044401,28.1598094 C9.72905681,28.2631937 9.74388889,28.3674493 9.76715489,28.4702527 C9.96666084,29.3513426 10.7198976,30.0343759 11.6159295,30.1493765 C11.6592624,30.1546038 11.7028861,30.1630255 11.7462191,30.1699952 L28.0437617,30.1699952 C28.149622,30.1519901 28.2557731,30.1371794 28.3604701,30.1145278 Z M11.9140251,18.1321128 C11.9140251,21.1421642 11.9137343,24.1522156 11.9143159,27.1622671 C11.9143159,27.5952614 12.289771,27.9675611 12.7233911,27.9675611 C17.5033909,27.9678515 22.2830999,27.9678515 27.0630997,27.9675611 C27.5007914,27.9675611 27.8742107,27.5958422 27.8742107,27.1596534 C27.8745015,24.1530869 27.8742107,21.1468107 27.8742107,18.1405346 L27.8742107,18.0780974 L25.9297547,18.0780974 C26.2042935,18.9542503 26.2886327,19.8455044 26.1810275,20.7538923 C26.0728406,21.6625706 25.779689,22.508231 25.3021543,23.289131 C24.8243288,24.0709021 24.2048716,24.7185061 23.4463999,25.2339756 C21.4804229,26.5710018 18.8920803,26.6886159 16.8059925,25.519444 C15.7514611,24.9290499 14.9234823,24.1057508 14.3461946,23.0449001 C13.4850618,21.4619005 13.3475016,19.8004915 13.8526646,18.0766454 C13.2076147,18.0772262 12.5651823,18.0772262 11.9140251,18.0772262 L11.9140251,18.1321128 Z M15.7677473,19.9375629 C15.7351749,22.2436717 17.5839494,24.0717734 19.8003268,24.1193998 C22.1065691,24.1687688 23.9719207,22.3287605 24.0204885,20.0908969 C24.0702196,17.7830456 22.2060313,15.8768249 19.8951358,15.8782769 C17.6360071,15.8768249 15.7994472,17.6918583 15.7677473,19.9375629 Z M27.0913098,15.046556 C27.5226033,15.035811 27.8739199,14.6667058 27.8739199,14.2354539 C27.8742107,13.5933676 27.8742107,12.950991 27.8739199,12.3089048 C27.8739199,11.8483219 27.5089345,11.4818304 27.0482677,11.48154 C26.4069985,11.4812496 25.7657294,11.4809592 25.1241694,11.48154 C24.6646659,11.4821208 24.2985172,11.8494835 24.2982264,12.3100664 C24.2979356,12.9466349 24.2961906,13.5832035 24.300553,14.2200624 C24.3011346,14.3150249 24.3191658,14.4137628 24.3494116,14.5037884 C24.4645783,14.8426914 24.7754702,15.0506217 25.1561602,15.0523641 C25.465598,15.0529449 25.7750358,15.0520737 26.0847644,15.0520737 C26.4197948,15.0482984 26.7559885,15.0546874 27.0913098,15.046556 Z" id="Path" fill="#FFFFFF" sketch:type="MSShapeGroup"></path>
        </g>
    </g>
</svg>